# xmcd
#
# Track frame offsets:
#	150
#	13628
#	30675
#	51024
#	66717
#	81639
#	95730
#	109370
#	122279
#	143789
#	162561
#	177063
#	199205
#	216910
#	225791
#	237485
#	252855
#	261155
#	278553
#	293028
#	307554
#
# Disc length: 4347 seconds
#
# Revision: 1
# Processed by: cddbd v1.5.2PL0 Copyright (c) Steve Scherf et al.
# Submitted via: EZCDAudioConverter 8.0.7.1
#
DISCID=2d10f915
DTITLE=KennethGrahame - Wind In Willows- BBC FullCast
DYEAR=1994
DGENRE=Spoken
TTITLE0=Wind In The Willows 1a
TTITLE1=Wind In The Willows 1b
TTITLE2=Wind In The Willows 1c
TTITLE3=Wind In The Willows 1d
TTITLE4=Wind In The Willows 1e
TTITLE5=Wind In The Willows 1f
TTITLE6=Wind In The Willows 1g
TTITLE7=Wind In The Willows 1h
TTITLE8=Wind In The Willows 1i
TTITLE9=Wind In The Willows 1j
TTITLE10=Wind In The Willows 1k
TTITLE11=Wind In The Willows 1l
TTITLE12=Wind In The Willows 1m
TTITLE13=Wind In The Willows 1n
TTITLE14=Wind In The Willows 1o
TTITLE15=Wind In The Willows 1p
TTITLE16=Wind In The Willows 1q
TTITLE17=Wind In The Willows 1r
TTITLE18=Wind In The Willows 1s
TTITLE19=Wind In The Willows 1t
TTITLE20=Wind In The Willows 1u
EXTD=
EXTT0=
EXTT1=
EXTT2=
EXTT3=
EXTT4=
EXTT5=
EXTT6=
EXTT7=
EXTT8=
EXTT9=
EXTT10=
EXTT11=
EXTT12=
EXTT13=
EXTT14=
EXTT15=
EXTT16=
EXTT17=
EXTT18=
EXTT19=
EXTT20=
PLAYORDER=
